<svg width="36" height="36" viewBox="0 0 36 36" fill="none" xmlns="http://www.w3.org/2000/svg">
  <circle cx="18" cy="18" r="18" fill="#0D62C5" />
  <path fill-rule="evenodd" clip-rule="evenodd" d="M15.7589 6.09195C14.8279 6.29735 13.9587 6.94231 13.4751 7.78662L13.067 8.49921L13.019 17.1415C12.9627 27.3129 12.9314 27.0653 14.4669 28.5956C15.8021 29.9261 17.2693 30.2983 19.128 29.778C20.1057 29.5042 21.4083 28.3486 21.9274 27.2944C22.3165 26.5046 22.3195 26.4481 22.3697 19.3075L22.42 12.116H21.7388H21.0575L21.0535 18.7187C21.051 22.6434 20.9788 25.6271 20.8757 26.0751C20.5223 27.6091 19.2719 28.6018 17.6931 28.6018C16.1591 28.6018 14.9211 27.6519 14.5144 26.1626C14.2709 25.2713 14.2605 9.76071 14.5027 8.88848C15.0303 6.98891 17.7037 6.85534 18.4704 8.69031C18.6535 9.1282 18.7024 10.5615 18.7024 15.4751C18.7024 21.4804 18.6903 21.7168 18.366 22.0411C17.9377 22.4694 17.4485 22.4694 17.0202 22.0411C16.708 21.7289 16.6838 21.4804 16.6838 18.5926V15.4805H16.0109H15.338V18.6851C15.338 22.1338 15.394 22.4087 16.2608 23.2187C16.6345 23.5679 16.8775 23.6392 17.6931 23.6392C18.5086 23.6392 18.7517 23.5679 19.1253 23.2187C20.0559 22.3493 20.0482 22.4148 20.0482 15.3398V8.7899L19.5782 7.89025C18.8227 6.44421 17.3358 5.74406 15.7589 6.09195Z" fill="white" />
</svg>
  