<svg width="14" height="26" viewBox="0 0 14 26" fill="none" xmlns="http://www.w3.org/2000/svg">
  <path fill-rule="evenodd" clip-rule="evenodd" d="M6.04771 0.223431C5.76769 0.380203 5.46623 0.716546 5.3062 1.05064C5.04047 1.60553 5.0274 1.61285 4.4048 1.55177C3.92161 1.50435 3.66343 1.56036 3.30684 1.79045C2.49617 2.3134 2.4076 2.70209 2.4076 5.73663C2.4076 8.35532 2.40045 8.4254 2.14686 8.28369C1.66825 8.01645 0.835878 8.11017 0.426568 8.47747L0.0482663 8.81705L0.00943867 13.5273C-0.0332989 18.7138 0.0455701 19.5203 0.743527 21.0384C1.28267 22.2109 2.76284 23.7305 3.93011 24.3098C5.12905 24.9048 6.85891 25.1546 8.16396 24.9212C10.1591 24.5645 12.2105 23.0069 13.1659 21.1231C13.9458 19.5854 13.997 19.0299 13.9997 12.0997C14.0023 5.20806 14.0039 5.22241 13.1488 4.58674C12.8397 4.35721 12.5498 4.28065 12.0194 4.28867L11.3056 4.29937V3.59671C11.3056 2.30974 10.4001 1.40584 9.2692 1.56416C8.78547 1.63185 8.73842 1.60497 8.51287 1.13184C8.03197 0.123373 6.94317 -0.277846 6.04771 0.223431ZM7.27982 1.37051L7.59812 1.63931L7.66553 6.45675C7.72701 10.8462 7.75384 11.2878 7.96888 11.4293C8.1409 11.5424 8.26871 11.5424 8.44074 11.4293C8.65403 11.2888 8.68315 10.8785 8.74408 7.14294L8.81149 3.01198L9.16674 2.80398C9.48532 2.61737 9.55826 2.62089 9.87454 2.83719L10.2271 3.07826V7.56836C10.2271 11.4625 10.2553 12.0877 10.4389 12.2796C10.6948 12.5467 10.7846 12.553 11.0681 12.3247C11.2556 12.1739 11.2927 11.7021 11.3298 9.00507C11.3725 5.89622 11.3766 5.85836 11.6914 5.59239C12.1022 5.24521 12.1941 5.25295 12.5925 5.66894L12.9235 6.01429L12.9212 12.0369C12.9186 18.6178 12.8543 19.3485 12.1609 20.6784C11.426 22.0878 9.69038 23.4094 8.10936 23.7633C7.12788 23.983 5.30445 23.729 4.34023 23.2381C2.69854 22.4025 1.45578 20.5997 1.18776 18.6654C1.12021 18.1774 1.06359 15.8919 1.0621 13.5869C1.05968 9.89743 1.08489 9.3856 1.27215 9.31059C1.51833 9.21194 2.06597 9.60232 2.46665 10.162C2.71498 10.5089 2.7495 10.7908 2.79035 12.8031L2.83619 15.0559L3.45797 15.4319C4.23304 15.9005 5.28949 16.899 5.64433 17.4985C5.79223 17.7481 5.95212 18.2483 5.99958 18.6098C6.09921 19.3692 6.41037 19.6456 6.87401 19.3867C7.12747 19.2451 7.15255 19.1397 7.08783 18.4849C7.04752 18.0772 6.879 17.4664 6.71358 17.1278C6.35914 16.4026 5.10209 15.0805 4.39105 14.6852L3.8906 14.4068L3.88467 12.5742C3.88076 11.3469 3.81457 10.5556 3.68447 10.1786C3.53697 9.75107 3.48965 8.83999 3.48817 6.39004C3.48642 3.58404 3.51513 3.13089 3.70927 2.90699C3.98673 2.58698 4.39914 2.57698 4.72257 2.88251C4.95028 3.09754 4.96916 3.41672 4.96916 7.0433C4.96916 9.48172 5.02214 11.0743 5.10869 11.2434C5.26522 11.5485 5.88727 11.6171 5.98043 11.3396C6.01292 11.2429 6.05647 9.02069 6.07737 6.40158L6.11512 1.63931L6.43342 1.37051C6.82804 1.03699 6.8852 1.03699 7.27982 1.37051Z" fill="white"/>
  </svg>
  