<svg width="20" height="20" viewBox="0 0 20 20" fill="none" xmlns="http://www.w3.org/2000/svg">
  <g opacity="1">
    <circle cx="10" cy="10" r="9.5" stroke="palevioletred" />
    <path fill-rule="evenodd" clip-rule="evenodd" d="M9.45583 3.12321C9.29582 3.21279 9.12356 3.40499 9.03212 3.5959C8.88027 3.91298 8.8728 3.91716 8.51703 3.88226C8.24092 3.85516 8.09339 3.88717 7.88962 4.01865C7.42638 4.31748 7.37577 4.53959 7.37577 6.27361C7.37577 7.77 7.37169 7.81005 7.22678 7.72907C6.95329 7.57636 6.47764 7.62992 6.24375 7.83981L6.02758 8.03385L6.00539 10.7254C5.98097 13.6891 6.02604 14.15 6.42487 15.0175C6.73295 15.6875 7.57877 16.5558 8.24577 16.8868C8.93089 17.2268 9.91938 17.3696 10.6651 17.2362C11.8052 17.0324 12.9775 16.1423 13.5234 15.0659C13.969 14.1872 13.9983 13.8698 13.9998 9.90965C14.0013 5.97157 14.0022 5.97977 13.5136 5.61653C13.337 5.48537 13.1713 5.44162 12.8682 5.44621L12.4604 5.45232V5.0508C12.4604 4.31539 11.9429 3.79887 11.2967 3.88934C11.0203 3.92802 10.9934 3.91266 10.8645 3.6423C10.5897 3.06603 9.96753 2.83677 9.45583 3.12321ZM10.1599 3.77869L10.3418 3.93228L10.3803 6.6851C10.4154 9.19338 10.4308 9.44573 10.5536 9.52655C10.6519 9.5912 10.725 9.5912 10.8233 9.52655C10.9452 9.44629 10.9618 9.21179 10.9966 7.07722L11.0351 4.71667L11.2381 4.59781C11.4202 4.49118 11.4619 4.49319 11.6426 4.61679L11.8441 4.75454V7.32032C11.8441 9.54552 11.8602 9.90281 11.9651 10.0124C12.1113 10.1651 12.1626 10.1687 12.3246 10.0382C12.4318 9.95203 12.453 9.68247 12.4742 8.14129C12.4986 6.3648 12.5009 6.34317 12.6808 6.19119C12.9155 5.9928 12.9681 5.99722 13.1957 6.23493L13.3848 6.43227L13.3835 9.87378C13.3821 13.6343 13.3453 14.0518 12.9491 14.8118C12.5292 15.6171 11.5374 16.3723 10.6339 16.5746C10.0731 16.7001 9.03111 16.555 8.48013 16.2745C7.54202 15.797 6.83187 14.7668 6.67872 13.6615C6.64012 13.3826 6.60776 12.0766 6.60692 10.7595C6.60553 8.65121 6.61994 8.35874 6.72694 8.31587C6.86762 8.2595 7.18055 8.48258 7.40951 8.80239C7.55142 9.00062 7.57114 9.1617 7.59448 10.3116L7.62068 11.5989L7.97598 11.8138C8.41888 12.0815 9.02256 12.6521 9.22533 12.9947C9.30984 13.1373 9.40121 13.4231 9.42833 13.6297C9.48526 14.0637 9.66307 14.2216 9.92801 14.0736C10.0728 13.9927 10.0872 13.9325 10.0502 13.5583C10.0272 13.3253 9.93086 12.9763 9.83633 12.7829C9.63379 12.3685 8.91548 11.613 8.50917 11.3871L8.2232 11.228L8.21981 10.1808C8.21758 9.4795 8.17975 9.02732 8.10541 8.81188C8.02113 8.56758 7.99409 8.04696 7.99324 6.64699C7.99224 5.04356 8.00865 4.78462 8.11958 4.65668C8.27813 4.47381 8.51379 4.4681 8.69861 4.64268C8.82873 4.76556 8.83952 4.94794 8.83952 7.02028C8.83952 8.41366 8.86979 9.32373 8.91925 9.42031C9.0087 9.59466 9.36416 9.6339 9.41739 9.47532C9.43596 9.42007 9.46084 8.15021 9.47278 6.65358L9.49435 3.93228L9.67624 3.77869C9.90174 3.5881 9.9344 3.5881 10.1599 3.77869Z" fill="white" stroke="palevioletred" stroke-width="0.25" />
  </g>
</svg>
  