<svg width="27" height="11" viewBox="0 0 27 11" fill="none" xmlns="http://www.w3.org/2000/svg">
  <path fill-rule="evenodd" clip-rule="evenodd" d="M25.8676 9.94178C26.1414 9.53151 26.4432 8.96475 26.5301 8.69778C26.6422 8.35316 26.6348 7.66662 26.5125 7.05078C26.1318 5.13377 25.199 3.75811 23.6707 2.85963C23.1099 2.5299 21.3019 1.67371 20.3736 1.29821C18.5426 0.557581 16.4174 0.228793 13.4495 0.226943C10.7148 0.225264 8.93335 0.464154 7.12164 1.07563C6.16806 1.39751 4.34032 2.21081 3.38608 2.738C1.96921 3.52069 1.13714 4.51226 0.60675 6.05002C0.246365 7.09493 0.135146 8.06333 0.309742 8.63614C0.444871 9.07938 0.980733 9.98643 1.37173 10.4339C1.81262 10.9385 1.76102 10.9409 3.89601 10.3155C4.87375 10.029 5.84854 9.77462 6.71194 9.58041C7.0577 9.50265 7.20671 9.43929 7.37113 9.30003C7.57273 9.12932 7.58658 9.09901 7.64203 8.70713C7.69785 8.31276 7.68523 8.04251 7.54414 6.60943C7.46258 5.78025 7.51193 5.34442 7.70984 5.14651C7.89814 4.95821 8.08567 4.88262 8.92984 4.65476C12.1721 3.77963 14.4327 3.76331 17.6561 4.59176C18.712 4.86315 19.1069 5.02418 19.233 5.23468C19.3434 5.41904 19.3535 6.33973 19.2541 7.16463C19.1461 8.06197 19.1659 8.84067 19.3033 9.09552C19.4611 9.38832 19.6661 9.49293 20.3649 9.63755C21.0836 9.78627 21.5088 9.89965 23.3476 10.433C24.0984 10.6507 24.733 10.8016 24.8803 10.7974C25.1184 10.7905 25.146 10.7755 25.4009 10.5138C25.549 10.3618 25.759 10.1044 25.8676 9.94178Z" fill="white"/>
  </svg>
  