<svg width="14" height="21" viewBox="0 0 14 21" fill="none" xmlns="http://www.w3.org/2000/svg">
  <path fill-rule="evenodd" clip-rule="evenodd" d="M6.26075 0.0272181C4.41886 0.350891 3.00753 1.66669 2.5776 3.461C2.49487 3.80625 2.48811 4.0848 2.48864 7.12742L2.48922 10.4202L2.61703 10.8696C3.03306 12.3325 4.12124 13.4658 5.55651 13.9309C7.98289 14.7173 10.5371 13.4485 11.3117 11.0719C11.5263 10.4133 11.5466 10.0049 11.526 6.75377C11.5099 4.21876 11.4949 3.69294 11.431 3.43652C11.0931 2.08125 10.1749 0.970493 8.92442 0.404229C8.30716 0.12474 7.85242 0.0236684 7.12187 0.00349135C6.77675 -0.00603667 6.38925 0.00461236 6.26075 0.0272181ZM0.509037 9.07422C0.339758 9.11938 0.161308 9.26917 0.0805542 9.43381C-0.121451 9.8458 0.0794439 11.3041 0.464195 12.2183C1.35741 14.3407 3.08201 15.8109 5.31106 16.3503C5.56366 16.4115 5.87349 16.4749 5.99962 16.4913L6.2289 16.5211V18.0361V19.5512H5.24653C4.30722 19.5512 4.25716 19.5558 4.10458 19.6563C3.83771 19.8321 3.74305 19.9941 3.74305 20.2752C3.74305 20.5562 3.83771 20.7183 4.10458 20.894L4.26416 20.9991H7.0012H9.73824L9.89781 20.894C10.1647 20.7183 10.2593 20.5562 10.2593 20.2752C10.2593 19.9941 10.1647 19.8321 9.89781 19.6563C9.74523 19.5558 9.69518 19.5512 8.75587 19.5512H7.7735V18.0361V16.5211L8.00278 16.4913C9.24174 16.3302 10.6443 15.7063 11.5976 14.892C13.061 13.6419 13.9998 11.736 14.0001 10.0146C14.0002 9.56239 13.969 9.44941 13.794 9.26772C13.517 8.98015 13.0382 8.98137 12.7395 9.27038C12.5435 9.46006 12.5422 9.46505 12.458 10.3034C12.3806 11.0737 12.1033 11.9023 11.7168 12.5174C11.1063 13.4892 10.0621 14.335 8.97303 14.7399C7.76235 15.19 6.24005 15.19 5.02937 14.7399C3.70733 14.2485 2.54193 13.181 1.99089 11.957C1.68974 11.288 1.55845 10.7631 1.50391 10.0104C1.46524 9.47636 1.41664 9.36034 1.15111 9.16856C1.02493 9.07739 0.684591 9.02737 0.509037 9.07422Z" fill="white"/>
  </svg>
  