<svg width="25" height="25" viewBox="0 0 25 25" fill="none" xmlns="http://www.w3.org/2000/svg">
  <path fill-rule="evenodd" clip-rule="evenodd" d="M12.2603 2.02722C10.4183 2.35091 9.00693 3.66676 8.57698 5.46114C8.49424 5.80641 8.48748 6.08498 8.48801 9.12772L8.48859 12.4206L8.61641 12.87C9.03246 14.333 10.1207 15.4663 11.556 15.9315C13.9825 16.718 16.5368 15.449 17.3114 13.0724C17.5261 12.4137 17.5463 12.0053 17.5258 8.75406C17.5097 6.21894 17.4946 5.6931 17.4307 5.43667C17.0928 4.08134 16.1746 2.97053 14.9241 2.40425C14.3068 2.12475 13.852 2.02367 13.1214 2.00349C12.7763 1.99396 12.3888 2.00461 12.2603 2.02722ZM6.50833 11.0746C6.33904 11.1198 6.16058 11.2696 6.07983 11.4342C5.87781 11.8462 6.07871 13.3045 6.46348 14.2188C7.35674 16.3413 9.08141 17.8116 11.3106 18.351C11.5632 18.4122 11.873 18.4756 11.9991 18.492L12.2284 18.5218V20.0369V21.5521H11.246C10.3067 21.5521 10.2566 21.5567 10.104 21.6571C9.83714 21.8329 9.74248 21.9949 9.74248 22.276C9.74248 22.5571 9.83714 22.7191 10.104 22.8949L10.2636 23H13.0008H15.7379L15.8975 22.8949C16.1644 22.7191 16.2591 22.5571 16.2591 22.276C16.2591 21.9949 16.1644 21.8329 15.8975 21.6571C15.7449 21.5567 15.6949 21.5521 14.7555 21.5521H13.7731V20.0369V18.5218L14.0024 18.492C15.2414 18.3309 16.644 17.707 17.5973 16.8926C19.0608 15.6425 19.9997 13.7365 20 12.015C20 11.5628 19.9689 11.4498 19.7938 11.2681C19.5168 10.9805 19.0381 10.9818 18.7393 11.2708C18.5433 11.4605 18.542 11.4655 18.4578 12.3039C18.3804 13.0742 18.103 13.9028 17.7166 14.518C17.1061 15.4898 16.0618 16.3357 14.9727 16.7405C13.7619 17.1906 12.2396 17.1906 11.0288 16.7405C9.70676 16.2491 8.5413 15.1816 7.99024 13.9575C7.68908 13.2885 7.55778 12.7636 7.50324 12.0109C7.46457 11.4768 7.41596 11.3607 7.15043 11.169C7.02425 11.0778 6.68389 11.0278 6.50833 11.0746Z" fill="white"/>
  <line x1="0.646447" y1="24.6464" x2="24.6464" y2="0.646448" stroke="white"/>
  </svg>
  