<svg width="22" height="22" viewBox="0 0 22 22" fill="current" xmlns="http://www.w3.org/2000/svg">
  <path fill-rule="evenodd" clip-rule="evenodd" d="M10.2593 0.0267298C8.4174 0.350402 7.00606 1.6662 6.57613 3.46051C6.4934 3.80576 6.48664 4.08431 6.48717 7.12693L6.48775 10.4197L6.61557 10.8691C7.0316 12.332 8.11977 13.4653 9.55505 13.9305C11.9814 14.7168 14.5356 13.448 15.3102 11.0714C15.5248 10.4128 15.5451 10.0044 15.5246 6.75328C15.5085 4.21827 15.4934 3.69245 15.4295 3.43603C15.0916 2.08077 14.1735 0.970004 12.923 0.403741C12.3057 0.124252 11.851 0.0231801 11.1204 0.00300307C10.7753 -0.00652495 10.3878 0.00412408 10.2593 0.0267298ZM4.50757 9.07373C4.33829 9.1189 4.15984 9.26868 4.07909 9.43332C3.87708 9.84531 4.07798 11.3036 4.46273 12.2178C5.35595 14.3402 7.08054 15.8104 9.3096 16.3498C9.56219 16.411 9.87203 16.4744 9.99815 16.4908L10.2274 16.5206V18.0356V19.5507H9.24506C8.30575 19.5507 8.2557 19.5554 8.10312 19.6558C7.83624 19.8316 7.74159 19.9936 7.74159 20.2747C7.74159 20.5557 7.83624 20.7178 8.10312 20.8935L8.2627 20.9986H10.9997H13.7368L13.8963 20.8935C14.1632 20.7178 14.2579 20.5557 14.2579 20.2747C14.2579 19.9936 14.1632 19.8316 13.8963 19.6558C13.7438 19.5554 13.6937 19.5507 12.7544 19.5507H11.772V18.0356V16.5206L12.0013 16.4908C13.2403 16.3297 14.6428 15.7058 15.5961 14.8915C17.0596 13.6414 17.9984 11.7355 17.9987 10.0141C17.9987 9.5619 17.9675 9.44892 17.7925 9.26723C17.5155 8.97966 17.0368 8.98088 16.738 9.2699C16.5421 9.45957 16.5407 9.46457 16.4565 10.3029C16.3792 11.0732 16.1018 11.9018 15.7154 12.5169C15.1049 13.4888 14.0607 14.3346 12.9716 14.7394C11.7609 15.1895 10.2386 15.1895 9.0279 14.7394C7.70587 14.248 6.54046 13.1805 5.98943 11.9565C5.68828 11.2875 5.55698 10.7626 5.50244 10.01C5.46378 9.47587 5.41517 9.35985 5.14964 9.16808C5.02347 9.07691 4.68313 9.02688 4.50757 9.07373Z" fill="current"/>
  <rect x="21.2131" width="1" height="30" transform="rotate(45 21.2131 0)" fill="current"/>
</svg>
