<?xml version="1.0" encoding="utf-8"?>
<svg version="1.1" width="20" height="20" viewBox="0 0 256 256" xmlns="http://www.w3.org/2000/svg">
  <desc>Created with Fabric.js 1.7.22</desc>
  <g transform="translate(128 128) scale(0.72 0.72)" style="">
    <g style="stroke: none; stroke-width: 0; stroke-dasharray: none; stroke-linecap: butt; stroke-linejoin: miter; stroke-miterlimit: 10; fill: none; fill-rule: nonzero; opacity: 1;" transform="translate(-175.05 -175.05000000000004) scale(3.89 3.89)">
      <path d="M 45 70.968 c -16.013 0 -29.042 -13.028 -29.042 -29.042 c 0 -1.712 1.388 -3.099 3.099 -3.099 c 1.712 0 3.099 1.388 3.099 3.099 C 22.157 54.522 32.404 64.77 45 64.77 c 12.595 0 22.843 -10.248 22.843 -22.843 c 0 -1.712 1.387 -3.099 3.099 -3.099 s 3.099 1.388 3.099 3.099 C 74.042 57.94 61.013 70.968 45 70.968 z" style="stroke: none; stroke-width: 1; stroke-dasharray: none; stroke-linecap: butt; stroke-linejoin: miter; stroke-miterlimit: 10; fill: rgb(0,0,0); fill-rule: nonzero; opacity: 1;" transform=" matrix(1 0 0 1 0 0) " stroke-linecap="round"/>
      <path d="M 45 60.738 L 45 60.738 c -10.285 0 -18.7 -8.415 -18.7 -18.7 V 18.7 C 26.3 8.415 34.715 0 45 0 h 0 c 10.285 0 18.7 8.415 18.7 18.7 v 23.337 C 63.7 52.322 55.285 60.738 45 60.738 z" style="stroke: none; stroke-width: 1; stroke-dasharray: none; stroke-linecap: butt; stroke-linejoin: miter; stroke-miterlimit: 10; fill: rgb(0,0,0); fill-rule: nonzero; opacity: 1;" transform=" matrix(1 0 0 1 0 0) " stroke-linecap="round"/>
      <path d="M 45 89.213 c -1.712 0 -3.099 -1.387 -3.099 -3.099 V 68.655 c 0 -1.712 1.388 -3.099 3.099 -3.099 c 1.712 0 3.099 1.387 3.099 3.099 v 17.459 C 48.099 87.826 46.712 89.213 45 89.213 z" style="stroke: none; stroke-width: 1; stroke-dasharray: none; stroke-linecap: butt; stroke-linejoin: miter; stroke-miterlimit: 10; fill: rgb(0,0,0); fill-rule: nonzero; opacity: 1;" transform=" matrix(1 0 0 1 0 0) " stroke-linecap="round"/>
      <path d="M 55.451 90 H 34.549 c -1.712 0 -3.099 -1.387 -3.099 -3.099 s 1.388 -3.099 3.099 -3.099 h 20.901 c 1.712 0 3.099 1.387 3.099 3.099 S 57.163 90 55.451 90 z" style="stroke: none; stroke-width: 1; stroke-dasharray: none; stroke-linecap: butt; stroke-linejoin: miter; stroke-miterlimit: 10; fill: rgb(0,0,0); fill-rule: nonzero; opacity: 1;" transform=" matrix(1 0 0 1 0 0) " stroke-linecap="round"/>
    </g>
  </g>
  <rect rx="5" ry="5" height="16.789" transform="matrix(-0.643192, 0.765705, -0.765705, -0.643192, 336.894653, -112.46402)" style="stroke-miterlimit: 10;" x="194.651" y="5.474" width="216.6"/>
  <rect rx="5" ry="5" style="fill: rgb(255, 255, 255);" height="2.537" transform="matrix(-0.641686, 0.766967, -0.766967, -0.641686, 327.301178, -80.595596)" x="182.477" y="36.157" width="154.198"/>
  <rect rx="5" ry="5" style="fill: rgb(251, 251, 251);" height="2.513" transform="matrix(-0.647545, 0.762028, -0.762028, -0.647545, 348.540955, -31.411167)" x="181.535" y="62.385" width="131.701"/>
</svg>