<svg width="24" height="24" viewBox="0 0 24 24" fill="none" xmlns="http://www.w3.org/2000/svg">
  <path fill-rule="evenodd" clip-rule="evenodd" d="M10.5748 0.0414197C10.3311 0.0986764 9.96562 0.313172 9.81558 0.487108C9.53832 0.808518 9.45732 1.07263 9.2692 2.26947L9.16276 2.94651L8.86234 3.05224C8.69707 3.1104 8.32825 3.26378 8.04268 3.3931C7.71855 3.53991 7.50397 3.61634 7.47168 3.59649C7.44321 3.57905 7.10093 3.33549 6.71108 3.05531C6.32123 2.77509 5.94198 2.52047 5.86826 2.48944C5.49353 2.33169 4.96889 2.35386 4.59038 2.54343C4.33233 2.67271 2.60888 4.38135 2.48208 4.63365C2.34402 4.90824 2.27731 5.26682 2.31846 5.5131C2.38151 5.89027 2.46913 6.06058 2.94325 6.72754C3.19877 7.08703 3.44572 7.43565 3.49199 7.50227L3.5761 7.6234L3.41571 7.95513C3.3275 8.13757 3.19767 8.44634 3.12718 8.64127C3.0567 8.83619 2.97428 9.05585 2.94399 9.12937L2.88894 9.26306L1.98445 9.41679C1.38393 9.51882 1.01085 9.60203 0.874444 9.66429C0.61549 9.78246 0.316329 10.0601 0.18508 10.3041C0.00779647 10.6335 -0.0106334 10.8246 0.00354293 12.1854L0.016696 13.4455L0.140267 13.7063C0.405797 14.2667 0.720237 14.4731 1.53534 14.6218C1.82631 14.6749 2.25487 14.7491 2.48767 14.7866C2.72048 14.8242 2.92604 14.8745 2.94451 14.8984C2.96294 14.9223 3.02783 15.0836 3.08875 15.2569C3.14963 15.4302 3.29407 15.7727 3.40965 16.0181C3.52526 16.2635 3.61985 16.4772 3.61985 16.4929C3.61985 16.5087 3.40512 16.8218 3.14266 17.1887C2.50508 18.0802 2.44136 18.1976 2.40368 18.5504C2.33221 19.2191 2.44199 19.4182 3.43934 20.4279C3.87392 20.8679 4.32323 21.3001 4.43775 21.3885C4.69272 21.5852 5.01165 21.6953 5.32653 21.6953C5.76532 21.6953 5.9415 21.6156 6.73128 21.0594C7.13169 20.7774 7.49626 20.5215 7.54146 20.4906C7.61597 20.4398 7.65948 20.4513 8.00802 20.6142C8.21941 20.713 8.56338 20.8557 8.77232 20.9313C8.98127 21.007 9.1656 21.0822 9.1819 21.0985C9.19825 21.1149 9.27302 21.4936 9.34804 21.9401C9.52336 22.9832 9.5469 23.0711 9.72446 23.3458C9.8947 23.6092 10.0445 23.7344 10.375 23.8891L10.6096 23.999H12.0075H13.4055L13.639 23.8896C14.1844 23.6342 14.4052 23.3238 14.5455 22.6156C14.5965 22.3585 14.6689 21.9444 14.7066 21.6953C14.7442 21.4462 14.7888 21.2053 14.8057 21.1598C14.8279 21.0999 14.9371 21.0416 15.2038 20.9474C15.4059 20.876 15.7574 20.7293 15.9848 20.6215C16.2122 20.5136 16.416 20.4248 16.4376 20.4242C16.4593 20.4235 16.8048 20.6588 17.2055 20.9471C18.1417 21.6205 18.1759 21.6363 18.7019 21.6363C19.3426 21.6363 19.3914 21.6053 20.4972 20.4986C21.604 19.3908 21.6356 19.3409 21.6356 18.7025C21.6356 18.179 21.6236 18.1528 20.9389 17.1872L20.4089 16.4398L20.603 16.0255C20.7098 15.7977 20.8581 15.443 20.9327 15.2374C21.0072 15.0317 21.0833 14.8483 21.1018 14.8299C21.1203 14.8114 21.5492 14.727 22.0549 14.6423C23.0829 14.4702 23.2822 14.3999 23.5759 14.1063C23.6707 14.0114 23.8046 13.8151 23.8734 13.67L23.9984 13.4061V12.0081V10.6102L23.8885 10.3756C23.7338 10.0452 23.6086 9.89532 23.3452 9.72509C23.0705 9.54753 22.9825 9.52398 21.9395 9.34867C21.493 9.27365 21.1156 9.19895 21.101 9.18272C21.0864 9.16646 21.0117 8.97599 20.935 8.7594C20.8584 8.54282 20.7136 8.18991 20.6134 7.97517C20.5131 7.76044 20.4387 7.56552 20.4479 7.54201C20.4571 7.5185 20.6936 7.17898 20.9734 6.78747C21.6023 5.90771 21.67 5.76402 21.6676 5.31376C21.6644 4.70071 21.5905 4.589 20.4224 3.43311C19.3921 2.4136 19.3366 2.37969 18.7019 2.38075C18.188 2.38162 18.1759 2.38721 17.2143 3.07004C16.8185 3.35112 16.473 3.58106 16.4465 3.58102C16.42 3.58098 16.2206 3.49482 16.0035 3.3896C15.7863 3.28434 15.5648 3.18542 15.5112 3.16979C15.4577 3.15411 15.2673 3.08717 15.0883 3.02101C14.8419 2.92997 14.7584 2.88051 14.7449 2.81758C14.735 2.77186 14.6917 2.52181 14.6486 2.26191C14.4688 1.1784 14.437 1.03542 14.3276 0.818441C14.1408 0.447887 13.7863 0.162824 13.3765 0.0537453C13.1358 -0.010324 10.8383 -0.0204049 10.5748 0.0414197ZM13.1132 1.39928C13.1419 1.43381 13.2485 1.95594 13.3502 2.55957C13.5553 3.77638 13.5915 3.87813 13.8701 4.02025C13.9588 4.06553 14.1741 4.14354 14.3485 4.19359C14.8426 4.33544 15.1727 4.46869 15.7578 4.76262C16.0553 4.91206 16.3573 5.04532 16.429 5.05878C16.641 5.09856 16.843 4.98751 17.7546 4.33004C18.2256 3.99028 18.6436 3.69982 18.6834 3.68454C18.7921 3.64284 20.3714 5.22599 20.3309 5.33605C20.3155 5.37795 20.0199 5.80887 19.6739 6.29366C19.315 6.79657 19.0246 7.24399 18.9976 7.33547C18.9313 7.55989 18.9716 7.69771 19.2827 8.31021C19.5358 8.80835 19.6849 9.1839 19.8832 9.82263C19.9909 10.1697 20.112 10.3303 20.3256 10.4095C20.418 10.4438 20.7683 10.5163 21.104 10.5707C22.3215 10.7679 22.6149 10.8258 22.6461 10.8751C22.6872 10.9398 22.6879 13.0754 22.6469 13.14C22.6285 13.1689 22.1741 13.2615 21.5351 13.3665C20.0771 13.6061 20.0445 13.6241 19.842 14.2979C19.6729 14.8607 19.5486 15.1691 19.2572 15.7491C19.1103 16.0415 18.9779 16.3301 18.963 16.3905C18.9105 16.6035 19.0146 16.7992 19.667 17.7138C20.0502 18.251 20.3164 18.6609 20.3164 18.7139C20.3164 18.7781 20.0944 19.0246 19.5352 19.5812C18.8997 20.2139 18.74 20.3535 18.6788 20.33C18.6373 20.3141 18.1985 20.0125 17.7034 19.6598C17.2084 19.307 16.7388 19.0011 16.6598 18.9801C16.4585 18.9264 16.3165 18.97 15.7288 19.2662C15.2056 19.5298 14.6892 19.7357 14.1858 19.8815C13.8499 19.9787 13.6893 20.1022 13.6051 20.328C13.5711 20.4194 13.4986 20.7689 13.4443 21.1046C13.2504 22.3005 13.2002 22.5596 13.1506 22.6193C13.0769 22.7082 10.9399 22.7103 10.8663 22.6215C10.8397 22.5895 10.7349 22.0704 10.6335 21.468C10.4415 20.3274 10.3978 20.1857 10.1903 20.031C10.1329 19.9883 9.92029 19.9035 9.71777 19.8426C9.17088 19.6783 8.85943 19.5535 8.27383 19.2638C7.71441 18.9871 7.49759 18.9424 7.27833 19.0584C7.22624 19.086 6.79106 19.3892 6.31123 19.7323C5.8314 20.0753 5.40946 20.3673 5.37354 20.3811C5.28352 20.4156 3.73799 18.8815 3.73799 18.7577C3.73799 18.7106 4.01222 18.2887 4.34981 17.8164C4.68635 17.3455 4.99031 16.9049 5.02536 16.8371C5.12877 16.6372 5.10199 16.4173 4.93498 16.0955C4.53931 15.3328 4.30799 14.7754 4.14875 14.2008C4.07353 13.9294 3.90739 13.7245 3.70979 13.6593C3.63151 13.6334 3.08119 13.5285 2.48689 13.4261C1.77689 13.3037 1.39448 13.2211 1.37172 13.1851C1.31438 13.0946 1.32679 11.0115 1.38511 10.9337C1.41909 10.8884 1.5805 10.844 1.90688 10.7902C3.1175 10.5905 3.56437 10.5102 3.68368 10.4708C3.8816 10.4055 4.03979 10.195 4.13394 9.87173C4.30354 9.28948 4.42479 8.98008 4.72734 8.35734C5.05339 7.68629 5.08636 7.55138 4.98303 7.31097C4.9531 7.24127 4.64299 6.78558 4.2939 6.29831C3.94484 5.81104 3.65923 5.37956 3.65923 5.33952C3.65923 5.26993 5.20347 3.69923 5.27191 3.69923C5.28931 3.69923 5.65573 3.95011 6.0861 4.25676C7.27089 5.10088 7.25045 5.08922 7.5152 5.07009C7.68291 5.05796 7.80652 5.01547 8.01231 4.89914C8.45757 4.64747 8.96599 4.42455 9.44846 4.26944C10.0868 4.0642 10.0954 4.06049 10.2258 3.93306C10.3757 3.78646 10.4005 3.69136 10.6085 2.46632C10.7034 1.9073 10.8022 1.42444 10.8281 1.39325C10.867 1.34635 11.0647 1.33651 11.9681 1.33651C12.9203 1.33651 13.0678 1.34458 13.1132 1.39928ZM11.1215 6.9086C9.16076 7.27829 7.57942 8.69655 7.04828 10.5618C6.89541 11.0987 6.84891 11.4361 6.84891 12.0081C6.84891 12.5592 6.89482 12.9086 7.03261 13.4061C7.56879 15.3421 9.25058 16.8259 11.2472 17.1244C11.611 17.1788 12.404 17.1788 12.7678 17.1244C14.4311 16.8758 15.9098 15.7905 16.6537 14.2724C16.8543 13.863 17.0541 13.2366 17.1246 12.7957C17.1819 12.4374 17.1737 11.4951 17.1102 11.1388C16.7236 8.9722 15.0389 7.28758 12.8785 6.90758C12.4715 6.83599 11.5037 6.83654 11.1215 6.9086ZM12.4324 8.20574C12.8149 8.23842 13.2797 8.37195 13.6754 8.56278C15.5182 9.45168 16.3372 11.6543 15.5202 13.5242C15.1382 14.3987 14.4108 15.1323 13.5521 15.509C13.0092 15.7472 12.7259 15.8022 12.0272 15.8047C11.2523 15.8075 10.9326 15.7357 10.2945 15.4152C9.52336 15.0278 8.98784 14.4923 8.60047 13.7211C8.28001 13.083 8.20815 12.7634 8.21098 11.9885C8.21287 11.4675 8.22815 11.3043 8.29919 11.046C8.48399 10.3744 8.81851 9.79825 9.30807 9.3087C9.96156 8.65525 10.7744 8.27296 11.6856 8.1905C11.8518 8.17545 12.0321 8.16797 12.0863 8.17388C12.1404 8.17979 12.2962 8.19412 12.4324 8.20574Z" fill="white"/>
  </svg>
  