<svg width="24" height="20" viewBox="0 0 24 20" fill="none" xmlns="http://www.w3.org/2000/svg">
  <path fill-rule="evenodd" clip-rule="evenodd" d="M1.72577 1.09531C1.212 1.25055 0.429195 1.99671 0.186653 2.56209C0.0347035 2.91595 -0.0023571 4.21198 0.000113612 9.08204C0.00285885 14.6978 0.0223501 15.202 0.256519 15.7093C0.85004 16.9952 1.56435 17.2878 4.11056 17.2878H6.03662L6.03717 17.8712C6.03772 18.5435 6.39776 19.2172 6.95024 19.5796C7.29051 19.8027 7.76283 19.8314 11.7267 19.8708C14.6023 19.8992 16.2992 19.863 16.6273 19.7661C16.9035 19.6846 17.3204 19.4003 17.5539 19.1344C17.9065 18.7328 17.9784 18.5354 17.9784 17.9693V17.2878H19.8796C20.9293 17.2878 21.9898 17.2182 22.2474 17.1323C22.8839 16.9204 23.7213 16.0923 23.8923 15.506C23.9824 15.1975 24.0181 12.7888 23.9913 8.83606L23.9493 2.64898L23.6185 2.16637C23.4366 1.90104 23.0706 1.53496 22.8051 1.35309L22.3225 1.02229L12.2236 0.998403C6.66913 0.985363 1.94512 1.02888 1.72577 1.09531ZM22.0179 2.9537C22.2073 3.14326 22.2335 3.89353 22.2335 9.12074C22.2335 14.348 22.2073 15.0982 22.0179 15.2878C21.8257 15.4798 20.7287 15.5034 12.0075 15.5034C3.2863 15.5034 2.18931 15.4798 1.99714 15.2878C1.80772 15.0982 1.7815 14.348 1.7815 9.12074C1.7815 3.89353 1.80772 3.14326 1.99714 2.9537C2.18931 2.76167 3.2863 2.73806 12.0075 2.73806C20.7287 2.73806 21.8257 2.76167 22.0179 2.9537ZM10.2648 6.6827C8.8693 8.05793 8.77184 8.18887 8.80986 8.63772C8.84089 9.00558 8.93862 9.16083 9.22536 9.29754C9.66816 9.50879 9.97892 9.38758 10.6692 8.73421L11.1153 8.312V10.3354C11.1153 12.3008 11.1249 12.3685 11.4523 12.6957C11.8633 13.1068 12.0694 13.1169 12.538 12.7482L12.8997 12.4638V10.3274V8.19093L13.5891 8.83579C14.133 9.34462 14.3428 9.46115 14.5842 9.38882C14.9759 9.27146 15.1792 9.06474 15.3008 8.66064C15.3849 8.3809 15.1883 8.1282 13.8334 6.77329C12.9655 5.90538 12.1558 5.20878 12.0148 5.20878C11.8749 5.20878 11.0876 5.87203 10.2648 6.6827ZM16.306 17.6653L16.2626 18.0428H12.0075H7.7524L7.70902 17.6653L7.66551 17.2878H12.0075H16.3495L16.306 17.6653Z" fill="white"/>
  </svg>
  