<svg width="27" height="22" viewBox="0 0 27 22" fill="none" xmlns="http://www.w3.org/2000/svg">
  <path d="M1.00146 1.99609V0.996094H0.00146484V1.99609H1.00146ZM6.57289 1.99609L7.28 1.28899L6.98711 0.996094H6.57289V1.99609ZM10.0026 5.42578L9.29547 6.13289L9.58837 6.42578H10.0026V5.42578ZM25.0015 5.42578H26.0015V4.42578H25.0015V5.42578ZM25.0015 20.8544V21.8544H26.0015V20.8544H25.0015ZM1.00146 20.8544H0.00146484V21.8544H1.00146V20.8544ZM0.00146484 1.99609V5.42578H2.00146V1.99609H0.00146484ZM6.57289 0.996094H1.00146V2.99609H6.57289V0.996094ZM10.7097 4.71867L7.28 1.28899L5.86579 2.7032L9.29547 6.13289L10.7097 4.71867ZM10.0026 6.42578H25.0015V4.42578H10.0026V6.42578ZM24.0015 5.42578V20.8544H26.0015V5.42578H24.0015ZM25.0015 19.8544H1.00146V21.8544H25.0015V19.8544ZM2.00146 20.8544V7.13895H0.00146484V20.8544H2.00146ZM2.00146 7.13895V5.42578H0.00146484V7.13895H2.00146Z" fill="white"/>
  </svg>
  