<svg width="25" height="22" viewBox="0 0 25 22" fill="current" xmlns="http://www.w3.org/2000/svg">
  <path fill-rule="evenodd" clip-rule="evenodd" d="M2.38502 3.01053C2.27231 3.02595 2.06018 3.09021 1.94496 3.14382C1.51794 3.34252 1.186 3.74287 1.04336 4.23122C1.01276 4.33596 1.01092 4.61022 1.00224 10.3708C0.997235 13.6873 0.999315 16.4583 1.00686 16.5287C1.05138 16.9441 1.25193 17.3336 1.56392 17.6103C1.74365 17.7696 2.02808 17.9152 2.25464 17.9637C2.41701 17.9984 2.56806 17.9991 9.98861 17.9994C15.2019 17.9995 17.5895 17.9936 17.6615 17.9804C18.1612 17.8886 18.5992 17.5478 18.8229 17.0768C18.8659 16.9864 18.9191 16.8507 18.9411 16.7753L18.9812 16.6383L18.9863 14.5397C18.991 12.6083 18.9937 12.4421 19.0201 12.4526C19.036 12.4589 19.6205 12.8065 20.3191 13.225C21.0177 13.6435 21.9421 14.1971 22.3733 14.4552C22.8045 14.7133 23.3584 15.0448 23.6041 15.192C23.8498 15.3392 24.086 15.4719 24.1289 15.4871C24.2423 15.527 24.4483 15.5226 24.5618 15.4777C24.695 15.4251 24.8141 15.3275 24.8846 15.2133C25.0071 15.0146 24.9985 15.3705 24.9983 10.4994C24.9981 6.88363 24.9939 6.07867 24.9745 6.00366C24.8984 5.70818 24.6623 5.50614 24.3703 5.48669C24.1949 5.47502 24.1155 5.5052 23.7564 5.72002C23.5916 5.81856 23.2587 6.01795 23.0164 6.16309C22.7741 6.30821 22.3857 6.54076 22.1531 6.67987C21.7235 6.93682 20.5719 7.62641 20.171 7.86682C20.0499 7.93946 19.816 8.0795 19.6512 8.17804C19.4865 8.27657 19.2724 8.40493 19.1755 8.46329L18.9994 8.5694L18.9902 6.46426L18.981 4.35913L18.942 4.22766C18.8502 3.91893 18.6972 3.66079 18.4825 3.45223C18.2566 3.23288 18.0047 3.09842 17.6958 3.03231C17.5423 2.99945 17.2845 2.99839 9.98744 3.0008C5.83518 3.00218 2.41409 3.00656 2.38502 3.01053Z" fill="current"/>
  <rect x="21.2131" width="1" height="30" transform="rotate(45 21.2131 0)" fill="current"/>
</svg>
