<svg width="27" height="25" viewBox="0 0 27 25" fill="none" xmlns="http://www.w3.org/2000/svg">
  <line x1="0.646447" y1="24.6464" x2="24.6464" y2="0.646448" stroke="white" />
  <path fill-rule="evenodd" clip-rule="evenodd" d="M4.38556 5.01053C4.27285 5.02595 4.06072 5.09022 3.94549 5.14383C3.51845 5.34253 3.1865 5.7429 3.04385 6.23128C3.01325 6.33602 3.01141 6.61028 3.00273 12.3711C2.99772 15.6877 2.9998 18.4589 3.00734 18.5292C3.05187 18.9447 3.25243 19.3342 3.56443 19.6109C3.74417 19.7703 4.02861 19.9158 4.25518 19.9643C4.41756 19.9991 4.56861 19.9998 11.9895 20C17.203 20.0002 19.5907 19.9943 19.6627 19.981C20.1624 19.8892 20.6005 19.5484 20.8242 19.0774C20.8671 18.987 20.9203 18.8513 20.9424 18.7759L20.9825 18.6389L20.9876 16.5402C20.9923 14.6087 20.995 14.4425 21.0214 14.453C21.0372 14.4593 21.6217 14.8069 22.3204 15.2254C23.019 15.644 23.9435 16.1976 24.3747 16.4557C24.806 16.7138 25.3598 17.0454 25.6056 17.1925C25.8513 17.3397 26.0874 17.4725 26.1304 17.4876C26.2438 17.5275 26.4498 17.5231 26.5633 17.4783C26.6965 17.4256 26.8156 17.3281 26.8861 17.2138C27.0086 17.0152 27 17.371 26.9998 12.4998C26.9996 8.8838 26.9954 8.0788 26.9761 8.00379C26.8999 7.70829 26.6638 7.50624 26.3718 7.4868C26.1963 7.47512 26.1169 7.50531 25.7578 7.72013C25.5931 7.81868 25.2601 8.01808 25.0178 8.16322C24.7756 8.30835 24.3871 8.54092 24.1545 8.68003C23.7248 8.93699 22.5732 9.62661 22.1723 9.86703C22.0512 9.93967 21.8173 10.0797 21.6525 10.1783C21.4878 10.2768 21.2737 10.4052 21.1768 10.4635L21.0006 10.5696L20.9915 8.46441L20.9823 6.35919L20.9432 6.22771C20.8514 5.91897 20.6984 5.66082 20.4837 5.45225C20.2578 5.23289 20.0059 5.09842 19.697 5.03231C19.5435 4.99945 19.2857 4.99839 11.9883 5.00081C7.83587 5.00218 4.41464 5.00656 4.38556 5.01053Z" fill="white" />
</svg>
  