<svg width="24" height="15" viewBox="0 0 24 15" fill="none" xmlns="http://www.w3.org/2000/svg">
  <path fill-rule="evenodd" clip-rule="evenodd" d="M1.38648 0.0105262C1.27378 0.0259483 1.06165 0.0902125 0.946423 0.143824C0.519401 0.34252 0.187466 0.742872 0.0448259 1.23122C0.0142224 1.33596 0.0123898 1.61022 0.0037038 7.3708C-0.00129989 10.6873 0.000779531 13.4583 0.00832029 13.5287C0.0528425 13.9441 0.253395 14.3336 0.565385 14.6103C0.745112 14.7696 1.02955 14.9152 1.2561 14.9637C1.41848 14.9984 1.56952 14.9991 8.99007 14.9994C14.2033 14.9995 16.591 14.9936 16.663 14.9804C17.1627 14.8886 17.6007 14.5478 17.8244 14.0768C17.8673 13.9864 17.9205 13.8507 17.9426 13.7753L17.9827 13.6383L17.9878 11.5397C17.9925 9.60833 17.9952 9.44209 18.0216 9.45261C18.0374 9.4589 18.6219 9.80648 19.3205 10.225C20.0192 10.6435 20.9436 11.1971 21.3748 11.4552C21.806 11.7133 22.3599 12.0448 22.6056 12.192C22.8513 12.3392 23.0874 12.4719 23.1304 12.4871C23.2438 12.527 23.4497 12.5226 23.5632 12.4777C23.6965 12.4251 23.8156 12.3275 23.8861 12.2133C24.0086 12.0146 24 12.3705 23.9997 7.49944C23.9996 3.88363 23.9953 3.07867 23.976 3.00366C23.8999 2.70818 23.6638 2.50614 23.3718 2.48669C23.1963 2.47502 23.1169 2.5052 22.7578 2.72002C22.5931 2.81856 22.2601 3.01795 22.0179 3.16309C21.7756 3.30821 21.3871 3.54076 21.1546 3.67987C20.7249 3.93682 19.5734 4.62641 19.1725 4.86682C19.0513 4.93946 18.8174 5.0795 18.6527 5.17804C18.488 5.27657 18.2739 5.40493 18.177 5.46329L18.0008 5.5694L17.9917 3.46426L17.9825 1.35913L17.9434 1.22766C17.8516 0.918928 17.6987 0.660792 17.4839 0.452229C17.2581 0.232885 17.0062 0.0984169 16.6973 0.0323068C16.5438 -0.000547199 16.2859 -0.00160699 8.98891 0.000804987C4.83664 0.00217543 1.41555 0.00656108 1.38648 0.0105262Z" fill="white"/>
  </svg>
  